<svg id="visual" viewBox="0 0 960 200" width="960" height="200" xmlns="http://www.w3.org/2000/svg" xmlns:xlink="http://www.w3.org/1999/xlink" version="1.1"><rect x="0" y="0" width="960" height="200" fill="#222222"></rect><path d="M0 164L22.8 158.5C45.7 153 91.3 142 137 141.8C182.7 141.7 228.3 152.3 274 152.7C319.7 153 365.3 143 411.2 139.2C457 135.3 503 137.7 548.8 142.3C594.7 147 640.3 154 686 157.3C731.7 160.7 777.3 160.3 823 158.7C868.7 157 914.3 154 937.2 152.5L960 151L960 0L937.2 0C914.3 0 868.7 0 823 0C777.3 0 731.7 0 686 0C640.3 0 594.7 0 548.8 0C503 0 457 0 411.2 0C365.3 0 319.7 0 274 0C228.3 0 182.7 0 137 0C91.3 0 45.7 0 22.8 0L0 0Z" fill="#fa7268"></path><path d="M0 96L22.8 100C45.7 104 91.3 112 137 113C182.7 114 228.3 108 274 106.5C319.7 105 365.3 108 411.2 110C457 112 503 113 548.8 110.8C594.7 108.7 640.3 103.3 686 97.8C731.7 92.3 777.3 86.7 823 87.3C868.7 88 914.3 95 937.2 98.5L960 102L960 0L937.2 0C914.3 0 868.7 0 823 0C777.3 0 731.7 0 686 0C640.3 0 594.7 0 548.8 0C503 0 457 0 411.2 0C365.3 0 319.7 0 274 0C228.3 0 182.7 0 137 0C91.3 0 45.7 0 22.8 0L0 0Z" fill="#ef5f67"></path><path d="M0 101L22.8 101.5C45.7 102 91.3 103 137 102.3C182.7 101.7 228.3 99.3 274 94.7C319.7 90 365.3 83 411.2 78.7C457 74.3 503 72.7 548.8 72C594.7 71.3 640.3 71.7 686 74.2C731.7 76.7 777.3 81.3 823 83.2C868.7 85 914.3 84 937.2 83.5L960 83L960 0L937.2 0C914.3 0 868.7 0 823 0C777.3 0 731.7 0 686 0C640.3 0 594.7 0 548.8 0C503 0 457 0 411.2 0C365.3 0 319.7 0 274 0C228.3 0 182.7 0 137 0C91.3 0 45.7 0 22.8 0L0 0Z" fill="#e34c67"></path><path d="M0 57L22.8 59.8C45.7 62.7 91.3 68.3 137 67C182.7 65.7 228.3 57.3 274 52.3C319.7 47.3 365.3 45.7 411.2 49.7C457 53.7 503 63.3 548.8 63.8C594.7 64.3 640.3 55.7 686 51.2C731.7 46.7 777.3 46.3 823 49.2C868.7 52 914.3 58 937.2 61L960 64L960 0L937.2 0C914.3 0 868.7 0 823 0C777.3 0 731.7 0 686 0C640.3 0 594.7 0 548.8 0C503 0 457 0 411.2 0C365.3 0 319.7 0 274 0C228.3 0 182.7 0 137 0C91.3 0 45.7 0 22.8 0L0 0Z" fill="#d53867"></path><path d="M0 18L22.8 21.3C45.7 24.7 91.3 31.3 137 32C182.7 32.7 228.3 27.3 274 26.5C319.7 25.7 365.3 29.3 411.2 31.7C457 34 503 35 548.8 36C594.7 37 640.3 38 686 36.7C731.7 35.3 777.3 31.7 823 32.7C868.7 33.7 914.3 39.3 937.2 42.2L960 45L960 0L937.2 0C914.3 0 868.7 0 823 0C777.3 0 731.7 0 686 0C640.3 0 594.7 0 548.8 0C503 0 457 0 411.2 0C365.3 0 319.7 0 274 0C228.3 0 182.7 0 137 0C91.3 0 45.7 0 22.8 0L0 0Z" fill="#c62368"></path></svg>