<svg id="visual" viewBox="0 0 960 200" width="960" height="200" xmlns="http://www.w3.org/2000/svg" xmlns:xlink="http://www.w3.org/1999/xlink" version="1.1"><rect x="0" y="0" width="960" height="200" fill="#222222"></rect><path d="M0 152L22.8 145.8C45.7 139.7 91.3 127.3 137 129C182.7 130.7 228.3 146.3 274 155.7C319.7 165 365.3 168 411.2 156.2C457 144.3 503 117.7 548.8 119C594.7 120.3 640.3 149.7 686 162.7C731.7 175.7 777.3 172.3 823 167.2C868.7 162 914.3 155 937.2 151.5L960 148L960 0L937.2 0C914.3 0 868.7 0 823 0C777.3 0 731.7 0 686 0C640.3 0 594.7 0 548.8 0C503 0 457 0 411.2 0C365.3 0 319.7 0 274 0C228.3 0 182.7 0 137 0C91.3 0 45.7 0 22.8 0L0 0Z" fill="#fa7268"></path><path d="M0 104L22.8 107.5C45.7 111 91.3 118 137 113.8C182.7 109.7 228.3 94.3 274 82.5C319.7 70.7 365.3 62.3 411.2 61.5C457 60.7 503 67.3 548.8 70.5C594.7 73.7 640.3 73.3 686 84.7C731.7 96 777.3 119 823 131.7C868.7 144.3 914.3 146.7 937.2 147.8L960 149L960 0L937.2 0C914.3 0 868.7 0 823 0C777.3 0 731.7 0 686 0C640.3 0 594.7 0 548.8 0C503 0 457 0 411.2 0C365.3 0 319.7 0 274 0C228.3 0 182.7 0 137 0C91.3 0 45.7 0 22.8 0L0 0Z" fill="#ef5f67"></path><path d="M0 60L22.8 62.5C45.7 65 91.3 70 137 73.5C182.7 77 228.3 79 274 83C319.7 87 365.3 93 411.2 99.5C457 106 503 113 548.8 115.8C594.7 118.7 640.3 117.3 686 107.2C731.7 97 777.3 78 823 77.7C868.7 77.3 914.3 95.7 937.2 104.8L960 114L960 0L937.2 0C914.3 0 868.7 0 823 0C777.3 0 731.7 0 686 0C640.3 0 594.7 0 548.8 0C503 0 457 0 411.2 0C365.3 0 319.7 0 274 0C228.3 0 182.7 0 137 0C91.3 0 45.7 0 22.8 0L0 0Z" fill="#e34c67"></path><path d="M0 77L22.8 72.2C45.7 67.3 91.3 57.7 137 52.3C182.7 47 228.3 46 274 51.7C319.7 57.3 365.3 69.7 411.2 65.8C457 62 503 42 548.8 40.8C594.7 39.7 640.3 57.3 686 66.8C731.7 76.3 777.3 77.7 823 79.5C868.7 81.3 914.3 83.7 937.2 84.8L960 86L960 0L937.2 0C914.3 0 868.7 0 823 0C777.3 0 731.7 0 686 0C640.3 0 594.7 0 548.8 0C503 0 457 0 411.2 0C365.3 0 319.7 0 274 0C228.3 0 182.7 0 137 0C91.3 0 45.7 0 22.8 0L0 0Z" fill="#d53867"></path><path d="M0 21L22.8 26.5C45.7 32 91.3 43 137 49.2C182.7 55.3 228.3 56.7 274 52.8C319.7 49 365.3 40 411.2 36C457 32 503 33 548.8 30.8C594.7 28.7 640.3 23.3 686 26.5C731.7 29.7 777.3 41.3 823 47.8C868.7 54.3 914.3 55.7 937.2 56.3L960 57L960 0L937.2 0C914.3 0 868.7 0 823 0C777.3 0 731.7 0 686 0C640.3 0 594.7 0 548.8 0C503 0 457 0 411.2 0C365.3 0 319.7 0 274 0C228.3 0 182.7 0 137 0C91.3 0 45.7 0 22.8 0L0 0Z" fill="#c62368"></path></svg>